<svg id="图层_1" data-name="图层 1" xmlns="http://www.w3.org/2000/svg" xmlns:xlink="http://www.w3.org/1999/xlink" width="210" height="76" viewBox="0 0 210 76">
  <defs>
    <linearGradient id="未命名的渐变_7" data-name="未命名的渐变 7" x1="104.95" x2="104.95" y2="76" gradientUnits="userSpaceOnUse">
      <stop offset="0" stop-color="#fff"/>
      <stop offset="1" stop-color="#e5d2d2"/>
    </linearGradient>
  </defs>
  <title>未标题-4</title>
  <rect x="-0.05" width="210" height="76" rx="8" style="fill: url(#未命名的渐变_7)"/>
  <path d="M50.68,66.75a28.72,28.72,0,1,1,27-18.85A1.25,1.25,0,1,1,75.34,47a26.21,26.21,0,1,0-17,16.07,1.25,1.25,0,1,1,.74,2.39A28.87,28.87,0,0,1,50.68,66.75Z" style="fill: #0066db"/>
  <path d="M50.12,52.44V27.85a12.27,12.27,0,0,1-2.89,1.92,17.07,17.07,0,0,1-3.75,1.48V27.69a24,24,0,0,0,4.88-2,21.25,21.25,0,0,0,4-2.6h1.38V52.44Z" style="fill: #0066db"/>
  <g>
    <path d="M73.6,61.45H72.07v-5a3.53,3.53,0,0,0-.43-2,1.69,1.69,0,0,0-1.44-.61,1.8,1.8,0,0,0-1.45.79,3,3,0,0,0-.6,1.87v4.92H66.62V56.34c0-1.65-.63-2.47-1.9-2.47a1.77,1.77,0,0,0-1.45.75,3.08,3.08,0,0,0-.57,1.92v4.91H61.17V52.81H62.7v1.37h0a2.93,2.93,0,0,1,2.69-1.57,2.58,2.58,0,0,1,1.54.48,2.41,2.41,0,0,1,.92,1.28,3.1,3.1,0,0,1,2.87-1.76q2.85,0,2.85,3.51Z" style="fill: #0066db"/>
    <path d="M75.67,59.59a4.26,4.26,0,0,0,2.5.83c1.19,0,1.79-.39,1.79-1.17a1,1,0,0,0-.39-.82A5.94,5.94,0,0,0,78,57.66a4.58,4.58,0,0,1-1.87-1.15,2.24,2.24,0,0,1-.43-1.37,2.15,2.15,0,0,1,1-1.84,4,4,0,0,1,2.39-.69,5.54,5.54,0,0,1,2,.38v1.48a4,4,0,0,0-2.2-.63,2,2,0,0,0-1.19.32,1,1,0,0,0-.46.85,1,1,0,0,0,.33.8,5.91,5.91,0,0,0,1.47.74,5.07,5.07,0,0,1,2,1.12,2.09,2.09,0,0,1,.51,1.43,2.15,2.15,0,0,1-1,1.87,4.27,4.27,0,0,1-2.52.69,5.12,5.12,0,0,1-2.35-.51Z" style="fill: #0066db"/>
  </g>
  <g>
    <path d="M110.93,24.15l1,.15c-.15,1.27-.38,2.6-.68,4l-1.05-.25Q110.62,26.45,110.93,24.15Zm1.51-3.6h1.18V24l.6-.4A24.27,24.27,0,0,1,116,25.77l-.94.69a21.87,21.87,0,0,0-1.43-2V35.84h-1.18Zm2.28,7.71h4.16c.08-.87.14-2.15.17-3.86h-3.26V23.29h3.28V20.55h1.23c0,1,0,1.91,0,2.74h3.81v5h1.53v1.11h-5.06a8.84,8.84,0,0,0,5,5.2,11.76,11.76,0,0,0-1,1.2,10,10,0,0,1-4.8-5.7,9.93,9.93,0,0,1-4.58,5.83,9.77,9.77,0,0,0-.92-1,8.83,8.83,0,0,0,4.51-5.48h-4Zm8.16-3.86h-2.61c0,1.65-.07,2.94-.14,3.86h2.75Z" style="fill: #d5363a"/>
    <path d="M132.69,34.27q3.9.06,9.1-.06c-.12.34-.26.76-.44,1.24q-5.17,0-8.89-.07a4,4,0,0,1-3.72-1.83,23.61,23.61,0,0,0-1.87,2.1l-.65-1.3,2-1.9V27.18h-1.85V26h3.06v6.69A3.54,3.54,0,0,0,132.69,34.27ZM128,20.77c.53.65,1.26,1.63,2.18,3l-1.1.78c-.85-1.32-1.54-2.35-2.08-3.06Zm3.58,4h3.92V23.27h-4.66V22.2h4.66V20.49h1.15V22.2h4.91v1.07h-4.91v1.52h3.93v4.48h-1.13v-.48h-2.8v1.12l.41-.62c1.54.84,3,1.68,4.45,2.51l-.72,1.11q-2.18-1.48-4.14-2.56v3.39h-1.15v-4a18.74,18.74,0,0,1-4.33,3.55,8.75,8.75,0,0,0-.84-1,17,17,0,0,0,4.78-3.45h-2.41v.48h-1.12Zm1.12,3h2.8v-2h-2.8Zm6.75-2h-2.8v2h2.8Z" style="fill: #d5363a"/>
    <path d="M144.29,29.87l3.28-.53c-.06.38-.11.78-.14,1.2-1.74.27-3.27.51-4.58.73l-.25-1.17A19.9,19.9,0,0,0,145,26.78c-.84,0-1.64.11-2.38.18l-.3-1.06a28.72,28.72,0,0,0,3-5.56l1.18.46q-1.6,3.18-2.76,5l1.88-.07c.36-.64.73-1.33,1.12-2.08l1.16.58Q146,27.52,144.29,29.87Zm-2,3.61c1.84-.4,3.69-.83,5.57-1.3,0,.42-.05.81-.05,1.19-1.74.4-3.47.84-5.17,1.29ZM147,34.59A24.77,24.77,0,0,0,152,32.14a16.42,16.42,0,0,1-.87-3.35l-3.34.47-.18-1.13,3.36-.47c-.09-.72-.15-1.5-.19-2.33l-2.83.32-.19-1.13,3-.32c-.06-1.09-.11-2.33-.16-3.74h1.28c0,1.34.06,2.54.1,3.59l5.23-.59.14,1.11-5.32.62q.06,1.23.18,2.31l5.39-.76.14,1.11-5.38.77a13.66,13.66,0,0,0,.72,2.81,13.43,13.43,0,0,0,2.75-2.73l1,.76a18.77,18.77,0,0,1-3.27,3.07A4.7,4.7,0,0,0,155,34.18c.69.41,1.13.2,1.33-.63.13-.66.24-1.4.33-2.21a11.56,11.56,0,0,0,1.2.45,20.12,20.12,0,0,1-.53,2.55c-.3.88-.82,1.32-1.55,1.32a3,3,0,0,1-2.11-.93,6.14,6.14,0,0,1-1.13-1.5,25.54,25.54,0,0,1-4.82,2.42C147.55,35.36,147.29,35,147,34.59Zm6.23-13.3.68-.78c.73.47,1.53,1,2.37,1.69l-.75.9C154.63,22.36,153.86,21.76,153.19,21.29Z" style="fill: #d5363a"/>
    <path d="M159.24,27.68h1v5.77l1.3-.19V26.12h-1.25v.51h-1.13V21.34h5.13v4.78h-1.66v2.64h1.63v1.06h-1.63v3.27l2-.33q0,.52,0,1.14l-6,1-.31-1.22,1-.12Zm3.95-2.63V22.4h-2.87v2.65Zm1.28.1a19.93,19.93,0,0,0,2.85-4.83l1.15.42c-.22.47-.44.92-.67,1.35h4.94v1A14.29,14.29,0,0,1,170,26.7a11.21,11.21,0,0,0,3.79,1.57c-.21.46-.38.89-.52,1.3a15.43,15.43,0,0,1-4.16-2.1A18.73,18.73,0,0,1,165,29.82q-.16-.32-.63-1.11a14.67,14.67,0,0,0,3.84-2,10.11,10.11,0,0,1-1.71-2.35,20.78,20.78,0,0,1-1.25,1.74A8.87,8.87,0,0,0,164.47,25.15Zm1.16,4.61h6.8v6.08h-1.17v-.75H166.8v.75h-1.17Zm5.63,1.09H166.8V34h4.46Zm.14-7.7h-4.18l-.09.15a8.82,8.82,0,0,0,2,2.66A11.35,11.35,0,0,0,171.4,23.15Z" style="fill: #d5363a"/>
  </g>
</svg>
