<svg id="图层_1" data-name="图层 1" xmlns="http://www.w3.org/2000/svg" xmlns:xlink="http://www.w3.org/1999/xlink" width="210" height="76" viewBox="0 0 210 76">
  <defs>
    <linearGradient id="未命名的渐变_7" data-name="未命名的渐变 7" x1="105" x2="105" y2="76" gradientUnits="userSpaceOnUse">
      <stop offset="0" stop-color="#fff"/>
      <stop offset="1" stop-color="#e5d2d2"/>
    </linearGradient>
  </defs>
  <title>未标题-4</title>
  <rect width="210" height="76" rx="8" style="fill: url(#未命名的渐变_7)"/>
  <path d="M52.74,66.75A28.75,28.75,0,1,1,81.49,38a28.45,28.45,0,0,1-1.76,9.9A1.25,1.25,0,1,1,77.39,47a26.19,26.19,0,1,0-17,16.07,1.25,1.25,0,1,1,.73,2.39A28.86,28.86,0,0,1,52.74,66.75Z" style="fill: #0066db"/>
  <path d="M44.25,47.63a10.59,10.59,0,0,0,6.66,2.29,7.07,7.07,0,0,0,4.7-1.46,4.83,4.83,0,0,0,1.74-3.91q0-5.44-7.81-5.45h-2.4v-3h2.28q6.93,0,6.92-5.12,0-4.72-5.28-4.73a9.22,9.22,0,0,0-5.7,2V24.85A12.91,12.91,0,0,1,52,23.22a8.73,8.73,0,0,1,5.9,1.92,6.28,6.28,0,0,1,2.22,5q0,5.64-5.75,7.25v.08a7.72,7.72,0,0,1,4.93,2.2,6.42,6.42,0,0,1,1.81,4.64,7.81,7.81,0,0,1-2.8,6.26,11.08,11.08,0,0,1-7.43,2.37,12.59,12.59,0,0,1-6.58-1.52Z" style="fill: #0066db"/>
  <g>
    <path d="M75.66,61.45H74.13v-5a3.52,3.52,0,0,0-.44-2,1.66,1.66,0,0,0-1.44-.61,1.81,1.81,0,0,0-1.45.79,3,3,0,0,0-.6,1.87v4.92H68.67V56.34c0-1.65-.63-2.47-1.9-2.47a1.77,1.77,0,0,0-1.45.75,3.08,3.08,0,0,0-.57,1.92v4.91H63.22V52.81h1.53v1.37h0a3,3,0,0,1,2.7-1.57,2.58,2.58,0,0,1,1.53.48,2.41,2.41,0,0,1,.92,1.28,3.1,3.1,0,0,1,2.87-1.76q2.86,0,2.86,3.51Z" style="fill: #0066db"/>
    <path d="M77.73,59.59a4.21,4.21,0,0,0,2.49.83c1.19,0,1.79-.39,1.79-1.17a1,1,0,0,0-.39-.82A5.78,5.78,0,0,0,80,57.66a4.58,4.58,0,0,1-1.87-1.15,2.24,2.24,0,0,1-.43-1.37,2.15,2.15,0,0,1,1-1.84,4,4,0,0,1,2.39-.69,5.5,5.5,0,0,1,2.05.38v1.48a4,4,0,0,0-2.2-.63,2,2,0,0,0-1.19.32,1,1,0,0,0-.46.85,1,1,0,0,0,.33.8,5.91,5.91,0,0,0,1.47.74,5,5,0,0,1,2,1.12,2.09,2.09,0,0,1,.51,1.43,2.15,2.15,0,0,1-1,1.87,4.27,4.27,0,0,1-2.52.69,5,5,0,0,1-2.34-.51Z" style="fill: #0066db"/>
  </g>
  <g>
    <path d="M111,24.15l1,.15c-.16,1.27-.39,2.6-.69,4l-1-.25Q110.67,26.45,111,24.15Zm1.52-3.6h1.17V24l.61-.4A25.92,25.92,0,0,1,116,25.77l-.94.69a20.08,20.08,0,0,0-1.43-2V35.84H112.5Zm2.28,7.71h4.15c.09-.87.14-2.15.17-3.86h-3.26V23.29h3.28V20.55h1.23c0,1,0,1.91,0,2.74h3.81v5h1.53v1.11h-5.06a8.87,8.87,0,0,0,5,5.2,11.76,11.76,0,0,0-1,1.2,10,10,0,0,1-4.8-5.7,9.89,9.89,0,0,1-4.58,5.83,9.77,9.77,0,0,0-.92-1q3.75-2.22,4.52-5.48h-4Zm8.15-3.86h-2.61c0,1.65-.07,2.94-.14,3.86h2.75Z" style="fill: #d5363a"/>
    <path d="M132.75,34.27q3.88.06,9.09-.06c-.12.34-.26.76-.44,1.24q-5.18,0-8.89-.07a4,4,0,0,1-3.72-1.83,23.61,23.61,0,0,0-1.87,2.1l-.64-1.3c.91-.88,1.58-1.52,2-1.9V27.18h-1.86V26h3.06v6.69A3.55,3.55,0,0,0,132.75,34.27Zm-4.66-13.5c.53.65,1.26,1.63,2.19,3l-1.11.78c-.85-1.32-1.54-2.35-2.08-3.06Zm3.58,4h3.92V23.27h-4.66V22.2h4.66V20.49h1.16V22.2h4.9v1.07h-4.9v1.52h3.92v4.48h-1.13v-.48h-2.79v1.12l.4-.62c1.54.84,3,1.68,4.45,2.51l-.71,1.11q-2.19-1.48-4.14-2.56v3.39h-1.16v-4a18.53,18.53,0,0,1-4.33,3.55,8.75,8.75,0,0,0-.84-1,16.86,16.86,0,0,0,4.78-3.45h-2.41v.48h-1.12Zm1.12,3h2.8v-2h-2.8Zm6.75-2h-2.79v2h2.79Z" style="fill: #d5363a"/>
    <path d="M144.34,29.87c.93-.14,2-.32,3.28-.53-.06.38-.11.78-.14,1.2-1.74.27-3.27.51-4.58.73l-.25-1.17A19.34,19.34,0,0,0,145,26.78c-.84,0-1.63.11-2.38.18l-.3-1.06a28.72,28.72,0,0,0,3-5.56l1.19.46q-1.62,3.18-2.77,5l1.88-.07c.36-.64.74-1.33,1.12-2.08l1.16.58C146.65,26.42,145.45,28.3,144.34,29.87Zm-2,3.61c1.84-.4,3.69-.83,5.57-1.3,0,.42,0,.81,0,1.19-1.74.4-3.46.84-5.17,1.29ZM147,34.59a25.12,25.12,0,0,0,5.09-2.45,16.39,16.39,0,0,1-.88-3.35l-3.33.47-.19-1.13,3.37-.47c-.09-.72-.16-1.5-.2-2.33l-2.83.32-.19-1.13,3-.32c-.06-1.09-.11-2.33-.16-3.74h1.28c0,1.34.06,2.54.1,3.59l5.23-.59.14,1.11-5.32.62q.06,1.23.18,2.31l5.39-.76.14,1.11-5.38.77a15.08,15.08,0,0,0,.72,2.81,13.75,13.75,0,0,0,2.76-2.73l1,.76a18.71,18.71,0,0,1-3.26,3.07,4.78,4.78,0,0,0,1.43,1.65c.69.41,1.13.2,1.33-.63a20.39,20.39,0,0,0,.33-2.21,11.56,11.56,0,0,0,1.2.45,20.12,20.12,0,0,1-.53,2.55c-.3.88-.82,1.32-1.55,1.32a3,3,0,0,1-2.1-.93,6.17,6.17,0,0,1-1.14-1.5,25.54,25.54,0,0,1-4.82,2.42C147.6,35.36,147.34,35,147,34.59Zm6.24-13.3.67-.78c.74.47,1.53,1,2.37,1.69l-.75.9C154.68,22.36,153.91,21.76,153.25,21.29Z" style="fill: #d5363a"/>
    <path d="M159.29,27.68h1v5.77l1.3-.19V26.12h-1.25v.51h-1.12V21.34h5.12v4.78h-1.66v2.64h1.63v1.06h-1.63v3.27l2-.33q0,.52,0,1.14l-6,1-.31-1.22.95-.12Zm4-2.63V22.4h-2.88v2.65Zm1.28.1a20.24,20.24,0,0,0,2.84-4.83l1.16.42c-.23.47-.45.92-.68,1.35h4.94v1a14.05,14.05,0,0,1-2.71,3.57,11.21,11.21,0,0,0,3.79,1.57c-.21.46-.38.89-.52,1.3a15.43,15.43,0,0,1-4.16-2.1,18.73,18.73,0,0,1-4.13,2.35c-.11-.21-.31-.58-.63-1.11a14.67,14.67,0,0,0,3.84-2,9.8,9.8,0,0,1-1.7-2.35q-.65,1-1.26,1.74A10.2,10.2,0,0,0,164.53,25.15Zm1.15,4.61h6.8v6.08h-1.17v-.75h-4.46v.75h-1.17Zm5.63,1.09h-4.46V34h4.46Zm.14-7.7h-4.17l-.1.15a8.82,8.82,0,0,0,2,2.66A11.35,11.35,0,0,0,171.45,23.15Z" style="fill: #d5363a"/>
  </g>
</svg>
